<svg xmlns="http://www.w3.org/2000/svg" version="1.1" xmlns:xlink="http://www.w3.org/1999/xlink" xmlns:svgjs="http://svgjs.dev/svgjs" width="2000" height="1247" viewBox="0 0 2000 1247"><g transform="matrix(1,0,0,1,-1.2120604118227902,0.504858299595071)"><svg viewBox="0 0 396 247" data-background-color="#ffffff" preserveAspectRatio="xMidYMid meet" height="1247" width="2000" xmlns="http://www.w3.org/2000/svg" xmlns:xlink="http://www.w3.org/1999/xlink"><g id="tight-bounds" transform="matrix(1,0,0,1,0.23998796154091906,-0.09999999999999432)"><svg viewBox="0 0 395.52 247.2" height="247.2" width="395.52"><g><svg></svg></g><g><svg viewBox="0 0 395.52 247.2" height="247.2" width="395.52"><g><g><path xmlns="http://www.w3.org/2000/svg" d="M144.424 247.2h-143.432l0-64.304 37.54 0v31.368h105.892zM0.992 0h143.432v32.936h-105.892l0 31.368-37.54 0zM227.721 247.2l0-64.304 37.541 0v31.368h61.623c8.972 0 15.819-2.432 20.541-7.296 4.722-4.816 7.083-12.537 7.083-23.162l0-0.91 39.82 0c-0.47 7.961-1.773 15.348-3.909 22.16-2.692 8.736-6.516 16.22-11.474 22.453-4.958 6.28-10.932 11.12-17.921 14.52-6.941 3.447-14.662 5.171-23.161 5.171zM227.721 0h100.226c19.124 0 33.645 5.43 43.561 16.291 9.916 10.861 14.874 26.68 14.875 47.457 0 0.186 0 0.371-0.002 0.556h-39.664v-3.389c0-9.916-2.243-17.07-6.728-21.462-4.486-4.344-10.861-6.516-19.125-6.517h-55.602v31.368l-37.541 0z" fill="#77d4fc" fill-rule="nonzero" stroke="none" stroke-width="1" stroke-linecap="butt" stroke-linejoin="miter" stroke-miterlimit="10" stroke-dasharray="" stroke-dashoffset="0" font-family="none" font-weight="none" font-size="none" text-anchor="none" style="mix-blend-mode: normal" data-fill-palette-color="tertiary"></path></g></g><g transform="matrix(1,0,0,1,0,77.70014814814814)"><svg viewBox="0 0 395.52 91.7997037037037" height="91.7997037037037" width="395.52"><g><svg viewBox="0 0 395.52 91.7997037037037" height="91.7997037037037" width="395.52"><g><svg viewBox="0 0 395.52 91.7997037037037" height="91.7997037037037" width="395.52"><g><svg viewBox="0 0 395.52 91.7997037037037" height="91.7997037037037" width="395.52"><g><svg viewBox="0 0 395.52 91.7997037037037" height="91.7997037037037" width="395.52"><g><svg viewBox="0 0 395.52 91.7997037037037" height="91.7997037037037" width="395.52"><g transform="matrix(1,0,0,1,0,0)"><svg width="395.52" viewBox="3.8499999046325684 -37 161.989990234375 37.599998474121094" height="91.7997037037037" data-palette-color="#3abcf0"><path d="M24.1 0L3.85 0 3.85-34.9 24.1-34.9 24.1-30.25 9.15-30.25 9.15-20.05 22.65-20.05 22.65-15.45 9.15-15.45 9.15-4.65 24.1-4.65 24.1 0ZM48.65 0L30.65 0 30.65-34.9 35.95-34.9 35.95-4.65 48.65-4.65 48.65 0ZM64.49 0L64.49-34.9 78.64-34.9Q82.69-34.9 84.79-32.6 86.89-30.3 86.89-25.9L86.89-25.9Q86.89-22.55 85.44-20.65 83.99-18.75 81.29-18.5L81.29-18.5 81.29-17.9Q82.79-17.9 84.02-17.32 85.24-16.75 86.14-15.7 87.04-14.65 87.54-13.2 88.04-11.75 88.04-10.05L88.04-10.05Q88.04-7.8 87.47-5.95 86.89-4.1 85.84-2.78 84.79-1.45 83.32-0.73 81.84 0 80.04 0L80.04 0 64.49 0ZM69.79-15.55L69.79-4.65 78.49-4.65Q80.39-4.65 81.39-5.68 82.39-6.7 82.39-8.95L82.39-8.95 82.39-11.25Q82.39-13.5 81.39-14.53 80.39-15.55 78.49-15.55L78.49-15.55 69.79-15.55ZM69.79-30.25L69.79-20.1 77.64-20.1Q79.39-20.1 80.34-21.03 81.29-21.95 81.29-24.05L81.29-24.05 81.29-26.3Q81.29-28.4 80.34-29.33 79.39-30.25 77.64-30.25L77.64-30.25 69.79-30.25ZM113.89 0L110.59 0Q108.69 0 107.64-1.05 106.59-2.1 106.59-4.35L106.59-4.35 105.99-4.35Q105.44-2 103.72-0.7 101.99 0.6 99.49 0.6L99.49 0.6Q95.79 0.6 93.97-1.38 92.14-3.35 92.14-6.95L92.14-6.95Q92.14-10.85 94.64-12.9 97.14-14.95 101.99-14.95L101.99-14.95 106.29-14.95 106.29-17.45Q106.29-19.95 105.19-21.13 104.09-22.3 101.69-22.3L101.69-22.3Q99.84-22.3 98.52-21.5 97.19-20.7 96.09-18.8L96.09-18.8 93.04-21.6Q94.34-23.8 96.57-25.2 98.79-26.6 102.04-26.6L102.04-26.6Q106.74-26.6 109.09-24.33 111.44-22.05 111.44-17.65L111.44-17.65 111.44-4.25 113.89-4.25 113.89 0ZM101.19-3.4L101.19-3.4Q102.29-3.4 103.22-3.75 104.14-4.1 104.82-4.7 105.49-5.3 105.89-6.13 106.29-6.95 106.29-7.9L106.29-7.9 106.29-11.5 102.24-11.5Q97.39-11.5 97.39-8L97.39-8 97.39-6.8Q97.39-5.05 98.42-4.23 99.44-3.4 101.19-3.4ZM123.89 0L118.74 0 118.74-26 123.89-26 123.89-21.7 124.49-21.7Q126.04-26.6 130.89-26.6L130.89-26.6Q134.39-26.6 136.31-24.23 138.24-21.85 138.24-17.25L138.24-17.25 138.24 0 133.09 0 133.09-16.55Q133.09-19.3 132.04-20.75 130.99-22.2 128.74-22.2L128.74-22.2Q126.69-22.2 125.29-20.98 123.89-19.75 123.89-17.55L123.89-17.55 123.89 0ZM144.99 0L144.99-37 150.14-37 150.14-19.05 149.79-13.8 150.34-13.8 153.64-18.65 159.34-26 165.29-26 156.99-15.7 165.84 0 159.94 0 153.34-12.45 150.14-8.6 150.14 0 144.99 0Z" opacity="1" transform="matrix(1,0,0,1,0,0)" fill="#3abcf0" class="undefined-text-0" data-fill-palette-color="primary" id="text-0"></path></svg></g></svg></g></svg></g></svg></g></svg></g></svg></g></svg></g></svg></g><defs></defs></svg><rect width="395.52" height="247.2" fill="none" stroke="none" visibility="hidden"></rect></g></svg></g></svg>